<?xml version="1.0" encoding="utf-8"?>
<!-- Generator: Adobe Illustrator 16.0.0, SVG Export Plug-In . SVG Version: 6.00 Build 0)  -->
<!DOCTYPE svg PUBLIC "-//W3C//DTD SVG 1.1//EN" "http://www.w3.org/Graphics/SVG/1.1/DTD/svg11.dtd">
<svg version="1.1" id="Layer_1" xmlns="http://www.w3.org/2000/svg" xmlns:xlink="http://www.w3.org/1999/xlink" x="0px" y="0px"
	 width="200px" height="200px" viewBox="0 0 200 200" enable-background="new 0 0 200 200" xml:space="preserve">
<g>
	<g>
		<g>
			<path fill="#1A1A1A" d="M192.812,105.265L200,96.938l-7.683-7.869l5.631-9.447l-8.934-6.417l3.907-10.283l-9.912-4.767
				l2.063-10.806l-10.591-2.975l0.153-10.998l-10.944-1.09l-1.757-10.858l-10.969,0.828l-3.617-10.391l-10.658,2.721l-5.363-9.602
				l-10.024,4.527l-6.953-8.523l-9.085,6.199L96.939,0l-7.871,7.685L79.62,2.051l-6.416,8.935L62.921,7.077l-4.768,9.912
				l-10.805-2.062l-2.974,10.59l-10.999-0.153l-1.09,10.943l-10.859,1.759l0.829,10.967L11.867,52.65l2.719,10.658l-9.602,5.366
				l4.527,10.024L0.987,85.65l6.201,9.085L0,103.061l7.685,7.871l-5.634,9.447l8.934,6.417l-3.907,10.282l9.914,4.768l-2.063,10.806
				l10.589,2.975l-0.153,10.998l10.944,1.09l1.759,10.858l10.969-0.826l3.615,10.388l10.658-2.72l5.366,9.604l10.023-4.529
				l6.951,8.525l9.086-6.201L103.06,200l7.871-7.683l9.448,5.632l6.419-8.935l10.28,3.908l4.768-9.912l10.805,2.062l2.976-10.59
				l10.997,0.153l1.09-10.943l10.859-1.757l-0.827-10.969l10.389-3.618l-2.719-10.657l9.602-5.364l-4.529-10.026l8.526-6.951
				L192.812,105.265z M28.646,136.103c-4.86-13.384-6.889-25.562-6.083-36.538l1.202-0.656c1.209,8.159,2.245,15.214,3.111,21.171
				c0.864,5.956,1.612,11.032,2.244,15.214L28.646,136.103z M29.748,141.653l-0.085-0.319l0.645-0.168l0.084,0.321L29.748,141.653z
				 M34.124,110.979c0.472-0.81,0.839-1.591,1.102-2.35l0.645-0.167c0.447,1.72,0.545,3.412,0.29,5.076
				c-0.404,2.854-0.52,4.602-0.351,5.243l-0.32,0.085C34.119,116.25,33.661,113.621,34.124,110.979 M36.229,120.39l-0.966,0.253
				l-0.082-0.321l0.965-0.253L36.229,120.39z M33.875,135.085l0.728,0.153c-0.162,0.273-0.21,0.517-0.156,0.728
				C34.176,135.811,33.989,135.519,33.875,135.085 M35.911,145.544l0.645-0.167c-0.159,0.273-0.182,0.621-0.07,1.048
				C36.214,146.271,36.025,145.976,35.911,145.544 M36.177,147.879l0.643-0.167l0.253,0.965l-0.643,0.168L36.177,147.879z
				 M36.933,150.775l0.643-0.169l0.417,1.609c-0.214,0.054-0.404,0.222-0.558,0.487L36.933,150.775z M38.019,154.955l-0.416-1.608
				l0.321-0.083l0.167,0.645l0.643-0.17L38.019,154.955z M44.524,144.332l-0.168-0.645l0.645-0.167l0.168,0.642L44.524,144.332z
				 M44.877,45.791c-0.568,1.324-1.355,3.102-2.362,5.337l-0.628-0.216l0.434-1.255c0.431-1.258,0.725-2.449,0.872-3.566
				c0.648-1.885,1.572-2.858,2.762-2.917C45.812,43.591,45.455,44.463,44.877,45.791 M47.641,114.213
				c-0.107-0.841-0.214-1.68-0.305-2.507c0.188,0.417,0.379,0.833,0.569,1.247C47.819,113.374,47.729,113.795,47.641,114.213
				 M82.73,174.868c-0.842,0.412-1.579,0.861-2.217,1.347l-0.63-0.216c0.578-1.681,1.432-3.145,2.564-4.393
				c1.917-2.154,2.978-3.545,3.193-4.173l0.314,0.108C85.647,170.478,84.576,172.92,82.73,174.868 M89.63,175.75
				c1.709-2.925,3.824-4.307,6.346-4.144C93.989,174.671,91.871,176.051,89.63,175.75 M122.062,98.013
				c0.084-0.909,0.588-2.378,1.514-4.4c0.284-0.137,0.635-0.133,1.051,0.011C123.765,96.138,122.908,97.601,122.062,98.013
				 M131.893,22.032c0.217-0.63,0.433-0.907,0.638-0.837l0.835,0.641C132.804,22.109,132.317,22.178,131.893,22.032
				 M145.088,126.931c0.07-0.45,0.146-0.901,0.214-1.354c0.305-0.302,0.611-0.603,0.918-0.901
				C145.842,125.437,145.467,126.192,145.088,126.931 M145.527,44.819c0.05,0.124,0.041,0.188-0.081,0.146
				C145.474,44.919,145.498,44.867,145.527,44.819c-0.209-0.512-1.882-2.422-5.072-5.785l-7.846-3.752
				c1.133-1.251,2.797-2.675,4.98-4.264l2.673-4.703l3.141,1.079l-0.325,0.944c-1.061,1.038-2.308,3.653-3.752,7.847
				c0.692,1.407,1.454,2.259,2.289,2.544c2.516,0.864,4.853-1.495,7.003-7.081c1.125,0.148,2.05,0.354,2.781,0.604
				c0.737,0.253,1.347,0.342,1.838,0.28c0.689,1.406-0.624,3.18-3.941,5.322c-0.992,1.531-1.738,2.857-2.244,3.974
				C146.578,42.888,146.068,43.883,145.527,44.819 M151.142,42.71l-1.384,1.982c-0.062-0.493,0.155-1.12,0.648-1.885
				C150.688,42.669,150.937,42.638,151.142,42.71 M149.157,63.816c0.216-0.628,0.434-0.905,0.639-0.835L149.157,63.816z
				 M152.684,57.648l-0.63-0.216c1.506-3,2.396-4.57,2.673-4.705l0.305,1.158C154.038,55.417,153.258,56.668,152.684,57.648
				 M151.909,50.703c-0.496,0.765-1.385,2.335-2.673,4.705l-0.943-0.325c-0.252-2.666,0.993-4.929,3.744-6.798
				c1.987-2.361,3.12-3.615,3.396-3.75C156.127,45.944,154.948,47.997,151.909,50.703 M173.328,104.007
				c0.139,0.275,0.135,0.628-0.011,1.051l-0.63-0.218C172.974,104.701,173.185,104.424,173.328,104.007 M169.24,113.849
				c0.141,0.277,0.137,0.626-0.009,1.048l-0.521-0.528C168.993,114.229,169.17,114.054,169.24,113.849 M164.842,101.088l0.63,0.215
				l-0.216,0.63l-0.63-0.215L164.842,101.088z M160.298,41.639l0.628,0.216c0.623,0.918,1.193,1.991,1.703,3.222
				c0.516,1.23,0.978,2.621,1.38,4.166c-1.214,2.859-2.318,5.054-3.321,6.589l-0.942-0.323c0.228-1.328,0.03-2.801-0.589-4.419
				C158.58,52.763,158.959,49.613,160.298,41.639 M161.367,62.039c-0.278,0.137-0.458,0.311-0.53,0.521
				C160.981,62.139,161.159,61.969,161.367,62.039 M162.583,106.636c-1.933,4.259-3.429,6.906-4.49,7.948l-0.944-0.325
				C158.951,109.019,160.764,106.479,162.583,106.636 M160.087,126.164l-0.11,0.314l-0.942-0.325l0.107-0.312L160.087,126.164z
				 M174.389,102.965l-0.628-0.216l0.323-0.942l0.628,0.216L174.389,102.965z M174.732,99.919l0.541-1.57
				c0.211,0.072,0.458,0.037,0.735-0.1l-0.648,1.886L174.732,99.919z M176.195,112.021l-0.63-0.216l0.108-0.315l0.63,0.216
				L176.195,112.021z M176.225,97.621l-0.313-0.107l0.218-0.628l-0.632-0.216l1.269-0.621L176.225,97.621z"/>
		</g>
	</g>
	<g>
		<g>
			<path fill="#FFFFFF" d="M90.388,126.729c-1.741,0-3.028,1.312-3.061,3.119c-0.024,1.44,0.871,2.3,2.396,2.3
				c1.742,0,3.029-1.312,3.061-3.119C92.81,127.589,91.913,126.729,90.388,126.729z"/>
			<path fill="#FFFFFF" d="M84.997,127.46c-0.064-0.078-0.16-0.124-0.262-0.124h-3.819c-0.163,0-0.303,0.115-0.334,0.275
				c0,0-1.475,7.312-1.566,7.82c-0.961-1.69-2.838-2.731-5.171-2.731c-4.646,0-8.018,3.737-8.018,8.887
				c0,4.237,2.547,7.084,6.339,7.084c1.821,0,3.419-0.728,4.613-2.051c-0.079,0.364-0.155,0.747-0.238,1.189
				c-0.02,0.099,0.01,0.2,0.073,0.276c0.064,0.077,0.16,0.121,0.26,0.121l3.813-0.002c0.162,0,0.302-0.115,0.333-0.274l4.048-20.19
				C85.088,127.641,85.062,127.538,84.997,127.46z M77.666,140.679c-0.096,0.544-0.27,1.051-0.517,1.507
				c-0.246,0.456-0.553,0.856-0.911,1.192c-0.354,0.332-0.761,0.596-1.212,0.783c-0.842,0.351-1.885,0.371-2.651,0.059
				c-0.356-0.146-0.666-0.358-0.919-0.63c-0.254-0.272-0.445-0.608-0.572-0.997c-0.128-0.396-0.18-0.845-0.154-1.334
				c0.031-0.592,0.162-1.159,0.39-1.688c0.227-0.526,0.53-0.993,0.901-1.386c0.367-0.39,0.803-0.704,1.296-0.936
				c0.486-0.228,1.013-0.343,1.562-0.343c0.482,0,0.922,0.091,1.307,0.27c0.382,0.178,0.703,0.431,0.954,0.753
				c0.252,0.324,0.429,0.72,0.524,1.177C77.762,139.571,77.763,140.102,77.666,140.679z"/>
			<path fill="#FFFFFF" d="M90.988,134.344h-3.944c-0.168,0-0.312,0.106-0.344,0.253l-2.669,13.235
				c-0.02,0.092,0.008,0.188,0.074,0.259c0.065,0.072,0.165,0.114,0.27,0.114h3.945c0.167,0,0.312-0.106,0.344-0.253l2.668-13.236
				c0.021-0.091-0.007-0.186-0.073-0.258S91.093,134.344,90.988,134.344z"/>
			<path fill="#FFFFFF" d="M33.582,147.003c0.401-1.787,1.144-5.755,1.164-5.856c0.174,0,4.64,0.03,4.64,0.03
				c5.325,0,8.634-2.847,8.634-7.429c0-4.015-2.753-6.412-7.364-6.412h-7.919c-0.166,0-0.309,0.117-0.341,0.281l-4.015,20.062
				c-0.02,0.102,0.017,0.206,0.082,0.286c0.066,0.08,0.164,0.126,0.268,0.126h1.567l1.966-0.013
				C32.264,148.078,33.337,148.091,33.582,147.003z M39.544,136.831c0,0-3.816,0.021-3.935,0.021
				c0.025-0.12,1.015-5.028,1.048-5.235c0.191,0.009,3.648,0.033,3.648,0.033c1.743,0,2.703,0.813,2.703,2.289
				C43.009,135.777,41.745,136.831,39.544,136.831z"/>
			<path fill="#FFFFFF" d="M120.219,132.7c-5.186,0-8.949,3.698-8.949,8.794c0,4.359,2.988,7.177,7.613,7.177
				c5.185,0,8.948-3.698,8.948-8.794C127.831,135.518,124.843,132.7,120.219,132.7z M119.185,144.167c-1.96,0-3.13-1.104-3.13-2.955
				c0-2.322,1.624-4.008,3.861-4.008c1.96,0,3.13,1.104,3.13,2.955C123.046,142.481,121.423,144.167,119.185,144.167z"/>
			<path fill="#FFFFFF" d="M111.834,127.46c-0.063-0.078-0.16-0.124-0.262-0.124h-3.819c-0.162,0-0.302,0.115-0.333,0.275
				c0,0-1.475,7.312-1.567,7.82c-0.961-1.69-2.837-2.731-5.171-2.731c-4.646,0-8.017,3.737-8.017,8.887
				c0,4.237,2.547,7.084,6.338,7.084c1.821,0,3.42-0.728,4.613-2.051c-0.079,0.364-0.154,0.747-0.238,1.189
				c-0.019,0.099,0.01,0.2,0.074,0.276c0.064,0.077,0.159,0.121,0.26,0.121l3.812-0.002c0.162,0,0.303-0.115,0.333-0.274
				l4.048-20.19C111.925,127.641,111.898,127.538,111.834,127.46z M104.567,140.679c-0.095,0.544-0.269,1.051-0.516,1.507
				c-0.246,0.456-0.553,0.856-0.911,1.192c-0.354,0.332-0.762,0.596-1.212,0.783c-0.842,0.351-1.885,0.371-2.651,0.059
				c-0.356-0.146-0.665-0.358-0.919-0.63c-0.254-0.272-0.446-0.608-0.572-0.997c-0.128-0.396-0.18-0.845-0.154-1.334
				c0.031-0.592,0.162-1.159,0.39-1.688c0.227-0.526,0.53-0.993,0.901-1.386c0.367-0.39,0.803-0.704,1.296-0.936
				c0.486-0.228,1.012-0.343,1.562-0.343c0.482,0,0.922,0.091,1.307,0.27c0.382,0.178,0.703,0.431,0.954,0.753
				c0.252,0.324,0.429,0.72,0.524,1.177C104.664,139.571,104.665,140.102,104.567,140.679z"/>
			<path fill="#FFFFFF" d="M140.429,133.858c-1.991-0.908-4.034-1.302-5.907-1.138c-3.28,0.288-5.162,2.245-4.911,5.107
				c0.151,1.727,1.139,3.051,3.021,4.049l2.076,1.087c0.849,0.455,0.928,0.666,0.951,0.936c0.055,0.618-0.652,0.772-1.078,0.811
				c-1.299,0.113-2.88-0.379-4.572-1.423c-0.077-0.049-0.175-0.062-0.26-0.04c-0.09,0.023-0.165,0.081-0.21,0.16l-1.664,2.936
				c-0.087,0.152-0.041,0.346,0.103,0.444c2.065,1.41,4.445,2.042,6.884,1.828c3.653-0.32,5.595-2.252,5.328-5.299
				c-0.161-1.839-1.046-3.003-3.054-4.018l-1.871-0.945c-1.098-0.602-1.155-0.754-1.181-1.041c-0.014-0.161-0.057-0.648,0.992-0.741
				c1.042-0.091,2.407,0.224,3.747,0.864c0.081,0.04,0.177,0.044,0.262,0.013s0.154-0.097,0.191-0.18l1.32-2.967
				C140.672,134.133,140.597,133.936,140.429,133.858z"/>
			<path fill="#FFFFFF" d="M161.062,127.42c-0.062-0.124-0.189-0.203-0.328-0.203h-5.397c-0.122,0-0.237,0.062-0.306,0.163
				c0,0-5.358,7.599-5.732,8.327c-0.102-0.689-2.732-8.212-2.732-8.212c-0.047-0.157-0.19-0.265-0.354-0.265h-4.723
				c-0.119,0-0.23,0.058-0.301,0.154c-0.068,0.098-0.086,0.223-0.047,0.335l5.007,12.683l-1.502,7.37
				c-0.021,0.107,0.008,0.22,0.078,0.304c0.069,0.085,0.174,0.134,0.284,0.134h3.819c0.501,0,0.933-0.354,1.028-0.847l1.336-6.837
				l9.836-12.722C161.111,127.693,161.124,127.544,161.062,127.42z"/>
			<path fill="#FFFFFF" d="M172.526,133.171c-0.062-0.076-0.155-0.12-0.254-0.12h-3.722c-0.158,0-0.294,0.112-0.324,0.268
				c0,0-0.141,0.71-0.23,1.206l-0.004,0.018c-0.842-1.02-2.156-1.645-3.456-1.726c-1.19-0.073-2.345,0.118-3.458,0.542
				c-3.662,1.395-6.102,4.995-6.062,8.943c0.034,3.435,2.279,5.738,5.699,5.899c1.839,0.087,3.438-0.463,4.893-1.7
				c-0.076,0.366-0.171,0.849-0.234,1.182c-0.019,0.096,0.01,0.194,0.072,0.27c0.062,0.074,0.155,0.117,0.253,0.117l3.714-0.002
				c0.158,0,0.295-0.112,0.325-0.268l2.858-14.356C172.615,133.347,172.589,133.247,172.526,133.171z M166.767,140.564
				c-0.091,0.52-0.257,1.004-0.492,1.439c-0.236,0.435-0.528,0.816-0.87,1.138c-0.338,0.316-0.727,0.567-1.156,0.747
				c-0.804,0.334-1.8,0.354-2.53,0.056c-0.34-0.139-0.636-0.341-0.878-0.602c-0.241-0.259-0.425-0.579-0.545-0.95
				c-0.123-0.378-0.173-0.807-0.148-1.273c0.03-0.564,0.155-1.106,0.372-1.61c0.217-0.503,0.506-0.948,0.86-1.323
				c0.351-0.372,0.767-0.672,1.237-0.893c0.464-0.217,0.965-0.327,1.491-0.327c0.46,0,0.879,0.086,1.246,0.257
				c0.365,0.17,0.672,0.412,0.911,0.719c0.24,0.31,0.409,0.688,0.501,1.123C166.858,139.508,166.858,140.014,166.767,140.564z"/>
			<path fill="#FFFFFF" d="M57.141,132.685c-5.095,0-8.794,3.711-8.794,8.824c0,4.408,2.965,7.146,7.737,7.146
				c2.162,0,3.95-0.554,5.835-1.812c0.169-0.112,0.194-0.356,0.054-0.502l-2.346-2.425c-0.101-0.104-0.26-0.124-0.387-0.056
				c-1.026,0.546-1.995,0.79-3.063,0.79c-2.186,0-3.456-1-3.483-2.738l10.695-0.034c0.159,0,0.297-0.109,0.331-0.266
				c0.241-1.086,0.381-1.879,0.381-2.715C64.101,135.065,61.434,132.685,57.141,132.685z M53.172,138.602
				c0.706-1.69,1.979-2.565,3.877-2.565c1.931,0,2.901,0.879,2.96,2.582C59.704,138.618,53.5,138.602,53.172,138.602z"/>
		</g>
		<path fill="#FFFFFF" d="M115.218,46.074h-0.827l-3.749-0.037H67.56c-0.682,0-1.233,0.553-1.233,1.233v6.832
			c0,7.492,5.287,11.618,14.888,11.618l34.004,0.064c3.595,0,6.508,2.913,6.508,6.508c0,3.594-2.913,6.508-6.508,6.508l0,0H77.085
			c-0.556,0-1.04,0.377-1.177,0.916l-9.021,35.633c-0.092,0.362-0.011,0.748,0.219,1.043c0.23,0.296,0.583,0.469,0.958,0.469h12.091
			c4.529,0,6.705-3.76,7.219-5.732l3.56-12.952h24.285c14.365,0,26.052-11.687,26.052-26.052
			C141.27,57.761,129.583,46.074,115.218,46.074z"/>
	</g>
</g>
</svg>
